<?xml version="1.0" standalone="no"?>
<!DOCTYPE svg PUBLIC "-//W3C//DTD SVG 20010904//EN"
 "http://www.w3.org/TR/2001/REC-SVG-20010904/DTD/svg10.dtd">
<svg version="1.0" xmlns="http://www.w3.org/2000/svg"
 width="360.000000pt" height="360.000000pt" viewBox="0 0 360.000000 360.000000"
 preserveAspectRatio="xMidYMid meet">

<g transform="translate(0.000000,360.000000) scale(0.100000,-0.100000)"
fill="#000000" stroke="none">
<path d="M0 1800 l0 -1800 1800 0 1800 0 0 1800 0 1800 -1800 0 -1800 0 0
-1800z m2038 -19 l-2 -122 -316 316 c-173 173 -318 315 -323 315 -4 0 -7 -109
-7 -242 l0 -243 -90 90 -90 90 0 375 0 375 416 -416 415 -416 -3 -122z m352
237 l0 -713 -90 90 -90 90 0 402 c0 222 -3 403 -8 403 -4 0 -43 -36 -87 -80
l-79 -80 -63 62 -63 63 237 237 c131 131 239 238 240 238 2 0 3 -321 3 -712z
m-360 -941 c-97 -95 -186 -181 -198 -191 l-23 -20 -299 299 -300 300 0 122 c0
68 3 123 8 123 4 0 140 -133 302 -295 l295 -295 62 62 c35 34 63 65 63 68 0 4
-88 95 -195 204 l-195 197 0 127 0 127 328 -328 327 -328 -175 -172z"/>
</g>
</svg>
