<?xml version="1.0" standalone="no"?>
<!DOCTYPE svg PUBLIC "-//W3C//DTD SVG 20010904//EN"
 "http://www.w3.org/TR/2001/REC-SVG-20010904/DTD/svg10.dtd">
<svg version="1.0" xmlns="http://www.w3.org/2000/svg"
 width="360.000000pt" height="360.000000pt" viewBox="0 0 360.000000 360.000000"
 preserveAspectRatio="xMidYMid meet">

<g transform="translate(0.000000,360.000000) scale(0.100000,-0.100000)"
fill="#000000" stroke="none">
<path d="M1715 3158 c-89 -32 -135 -102 -144 -219 l-6 -80 -66 -23 c-192 -67
-337 -200 -423 -388 -66 -144 -68 -161 -76 -613 -7 -405 -7 -411 -32 -480 -36
-101 -97 -215 -177 -335 -77 -115 -87 -152 -50 -186 20 -18 52 -19 1033 -20
557 0 1023 4 1038 8 14 5 31 22 38 38 14 34 15 32 -82 179 -83 125 -137 230
-169 326 -22 67 -23 87 -29 475 -6 403 -7 405 -33 493 -78 253 -234 422 -466
503 l-66 23 -6 78 c-3 44 -13 94 -23 116 -45 91 -164 139 -261 105z m120 -153
c20 -19 25 -34 25 -75 l0 -50 -76 0 -76 0 4 57 c4 43 10 61 28 75 31 25 66 23
95 -7z"/>
<path d="M208 2852 c-237 -437 -272 -975 -93 -1442 40 -104 124 -270 137 -270
4 0 33 16 63 36 40 25 53 39 47 47 -6 7 -32 57 -60 112 -86 174 -133 347 -153
563 -28 291 37 607 176 869 l44 82 -59 36 c-31 19 -59 35 -61 35 -2 0 -20 -30
-41 -68z"/>
<path d="M3258 2883 l-57 -34 28 -47 c73 -127 150 -338 175 -487 59 -341 11
-681 -140 -991 -30 -61 -54 -114 -54 -117 0 -7 110 -70 115 -66 13 14 77 138
107 209 51 119 75 196 105 340 24 113 27 146 27 335 0 128 -5 235 -13 275 -25
130 -53 237 -88 330 -35 96 -131 291 -142 289 -3 0 -32 -16 -63 -36z"/>
<path d="M502 2628 c-95 -190 -131 -333 -139 -553 -6 -174 9 -288 58 -442 31
-97 124 -303 138 -303 3 0 32 16 62 35 l56 35 -43 83 c-178 343 -178 751 0
1094 l43 82 -58 36 c-31 19 -59 35 -61 35 -2 0 -27 -46 -56 -102z"/>
<path d="M2947 2692 c-34 -23 -54 -42 -48 -47 16 -18 67 -120 95 -189 46 -117
67 -220 73 -372 9 -221 -28 -398 -126 -591 -22 -46 -41 -86 -41 -90 0 -5 25
-23 56 -42 46 -27 58 -31 66 -20 34 49 112 231 137 322 43 154 55 257 48 432
-6 158 -23 246 -72 385 -29 81 -113 250 -124 249 -3 0 -32 -17 -64 -37z"/>
<path d="M1477 638 c29 -51 97 -114 155 -145 48 -25 63 -28 153 -28 90 0 105
3 153 28 67 35 121 84 150 136 l23 41 -326 0 -326 0 18 -32z"/>
</g>
</svg>
